<svg xmlns="http://www.w3.org/2000/svg" width="1071.074" height="879.673" viewBox="0 0 1071.074 879.673">
  <g id="Group_2" data-name="Group 2" transform="translate(-34 65.748)">
    <path id="Path_12" data-name="Path 12" d="M1123.35,753.41A197.3,197.3,0,0,1,1106.94,786l-.16.25a30.7,30.7,0,0,1-26,14H152.65c-67.75,0-110.2-70-76.23-125.81,61.13-100.51,118.89-240,49-336.15-112.27-154.56,8.61-182.61,88.35-185.86a221.519,221.519,0,0,1,89.86,15.16c36.84,14.49,104.17,36.63,191.89,46.79,2.88.33,5.78.65,8.72,1A813.55,813.55,0,0,0,644.02,218h0c1.37-.08,2.74-.18,4.14-.28a806.993,806.993,0,0,0,136.72-21.85c2.91-.73,5.78-1.42,8.63-2.12,149.64-35.75,287.58,86.1,253.09,223.8-12.75,50.93-9.51,105.22,33,149.14C1149.2,638.34,1140.77,708.93,1123.35,753.41Z" transform="translate(-30.46 -218)" fill="#ff63e7" opacity="0.1"/>
    <g id="undraw_game_world_0o6q" transform="translate(187 54)">
      <path id="Path_1" data-name="Path 1" d="M665.538,566.716V829.962H1004.15V566.716Zm294.4,70.4H933.71V610.889h26.226Z" transform="translate(-195.846 -70.038)" fill="#3f3d56"/>
      <rect id="Rectangle_1" data-name="Rectangle 1" width="441.292" height="68.815" transform="translate(0 496.679)" fill="#3f3d56"/>
      <rect id="Rectangle_2" data-name="Rectangle 2" width="441.292" height="68.815" transform="translate(0 593.894)" fill="#3f3d56"/>
      <rect id="Rectangle_3" data-name="Rectangle 3" width="441.292" height="68.815" transform="translate(0 691.109)" fill="#3f3d56"/>
      <rect id="Rectangle_4" data-name="Rectangle 4" width="21.846" height="28.4" transform="translate(78.646 164.617)" fill="#3f3d56"/>
      <rect id="Rectangle_5" data-name="Rectangle 5" width="21.846" height="28.4" transform="translate(667.4 386.356) rotate(90)" fill="#3f3d56"/>
      <path id="Path_2" data-name="Path 2" d="M310.172,593.894h131.12v68.815H270.444Z" fill="#ff63e7"/>
      <path id="Path_3" data-name="Path 3" d="M254.038,691.109H441.292v68.816H214.311Z" fill="#ff63e7"/>
      <path id="Path_4" data-name="Path 4" d="M520.121,408.279c-1.881-1.885-3.747-3.832-5.549-5.788l1.955-1.8c1.778,1.931,3.62,3.853,5.475,5.713Z" transform="translate(-195.846 -70.038)" fill="#3f3d56"/>
      <path id="Path_5" data-name="Path 5" d="M504.012,390.024c-3.335-4.283-6.529-8.756-9.493-13.294l2.224-1.454c2.926,4.477,6.076,8.89,9.366,13.115Zm-17.852-27.33c-2.579-4.771-4.99-9.71-7.166-14.679l2.434-1.066c2.146,4.9,4.524,9.775,7.068,14.482Zm-13.09-29.9c-1.754-5.123-3.318-10.389-4.651-15.655l2.576-.652c1.314,5.2,2.858,10.393,4.588,15.447Zm-5.392-32.081-2.62.441c-.9-5.357-1.592-10.807-2.053-16.2l2.648-.226c.454,5.32,1.135,10.7,2.024,15.983Zm-2.733-32.079-2.657.007c-.014-5.423.2-10.914.633-16.318l2.649.212c-.429,5.332-.639,10.748-.625,16.1Zm2.582-32.091-2.621-.432c.882-5.353,2-10.737,3.324-16l2.577.648c-1.307,5.195-2.41,10.506-3.28,15.786Zm355.754-76.894c-2.971-4.444-6.168-8.821-9.5-13.012l2.079-1.654c3.38,4.248,6.621,8.685,9.632,13.189ZM475.38,205.3l-2.514-.858c1.752-5.131,3.741-10.255,5.911-15.231l2.435,1.062C479.071,195.179,477.108,200.235,475.38,205.3Zm327.853-70.845c-3.664-3.9-7.538-7.69-11.512-11.274l1.78-1.973c4.028,3.634,7.953,7.478,11.667,11.428ZM488.259,175.773l-2.341-1.259c2.57-4.778,5.369-9.506,8.321-14.057l2.229,1.445C493.556,166.393,490.794,171.059,488.259,175.773Zm291.064-62.89c-4.255-3.248-8.7-6.359-13.2-9.246l1.434-2.237c4.565,2.926,9.066,6.079,13.379,9.37Zm-273.539,35.87-2.1-1.623c3.313-4.293,6.846-8.5,10.5-12.509l1.963,1.79c-3.605,3.955-7.091,8.107-10.36,12.342ZM752.209,95.5c-4.728-2.51-9.618-4.854-14.534-6.967l1.049-2.442c4.983,2.142,9.938,4.518,14.73,7.062Zm-224.731,29.46-1.81-1.945c3.973-3.7,8.146-7.268,12.4-10.618l1.643,2.088C535.515,117.793,531.4,121.317,527.478,124.963ZM722.619,82.785c-5.082-1.7-10.29-3.214-15.48-4.489l.634-2.581c5.261,1.293,10.54,2.824,15.691,4.55ZM552.771,105.06l-1.465-2.216c4.523-2.989,9.226-5.825,13.977-8.427l1.276,2.331C561.871,99.314,557.232,102.111,552.771,105.06ZM691.339,75.1c-5.283-.841-10.669-1.471-16.009-1.871l.2-2.649c5.412.406,10.872,1.044,16.228,1.9ZM581,89.6l-1.078-2.428c4.95-2.2,10.059-4.22,15.185-6.007l.874,2.509C590.922,85.438,585.882,87.431,581,89.6Zm78.225-16.907c-5.34.043-10.755.311-16.094.8l-.24-2.646c5.411-.491,10.9-.763,16.313-.806ZM611.4,79l-.666-2.572c5.242-1.357,10.629-2.519,15.965-3.447l.455,2.618c-5.269.915-10.58,2.062-15.754,3.4Z" transform="translate(-195.846 -70.038)" fill="#3f3d56"/>
      <path id="Path_6" data-name="Path 6" d="M835.463,180.583c-1.177-2.348-2.418-4.7-3.69-7l2.325-1.287c1.289,2.331,2.548,4.719,3.74,7.1Z" transform="translate(-195.846 -70.038)" fill="#3f3d56"/>
      <path id="Path_7" data-name="Path 7" d="M906.72,829.962,782.579,614.953l-27.854-48.236L690.41,455.3l-31.972-55.369L626.466,455.3,562.151,566.716,534.3,614.952l-11.885,20.58H637.138V566.716h28.4V829.962ZM747.431,719.125a15.942,15.942,0,1,1-15.942,15.942,15.942,15.942,0,0,1,15.942-15.942ZM655.477,509.716l-17.888-19.178,19.178-17.888,17.888,19.178Z" transform="translate(-195.846 -70.038)" fill="#ff63e7"/>
      <circle id="Ellipse_3" data-name="Ellipse 3" cx="13.285" cy="13.285" r="13.285" transform="translate(428.952 260.635)" fill="#f2f2f2"/>
      <path id="Path_8" data-name="Path 8" d="M653.374,151.768A131.077,131.077,0,1,0,806.879,255.685,131.077,131.077,0,0,0,653.374,151.768ZM641.1,359.612a15.942,15.942,0,1,1,12.639-18.669A15.942,15.942,0,0,1,641.1,359.612Zm88.328-116.317-25.752,4.961L698.714,222.5l25.752-4.961Z" transform="translate(-195.846 -70.038)" fill="#f2f2f2"/>
      <circle id="Ellipse_4" data-name="Ellipse 4" cx="86.292" cy="86.292" r="86.292" transform="translate(121.294 274.439)" fill="#2f2e41"/>
      <path id="Path_9" data-name="Path 9" d="M174.258,478.9l-25.8-4.67,8.367-53.864,25.8,4.67Z" fill="#2f2e41"/>
      <rect id="Rectangle_6" data-name="Rectangle 6" width="26.215" height="46.969" transform="translate(208.424 429.706) rotate(10.261)" fill="#2f2e41"/>
      <ellipse id="Ellipse_5" data-name="Ellipse 5" cx="8.192" cy="21.846" rx="8.192" ry="21.846" transform="matrix(0.646, -0.763, 0.763, 0.646, 195.486, 476.199)" fill="#2f2e41"/>
      <ellipse id="Ellipse_6" data-name="Ellipse 6" cx="8.192" cy="21.846" rx="8.192" ry="21.846" transform="matrix(0.646, -0.763, 0.763, 0.646, 144.968, 474.701)" fill="#2f2e41"/>
      <circle id="Ellipse_7" data-name="Ellipse 7" cx="29.492" cy="29.492" r="29.492" transform="translate(184.135 310.131)" fill="#fff"/>
      <circle id="Ellipse_8" data-name="Ellipse 8" cx="9.831" cy="9.831" r="9.831" transform="translate(215.918 319.221)" fill="#3f3d56"/>
      <path id="Path_10" data-name="Path 10" d="M335.36,336.892c-1.3-31.947,26.236-59.006,61.5-60.438s64.9,23.3,66.2,55.251-23.214,39.205-58.476,40.637S336.658,368.839,335.36,336.892Z" transform="translate(-195.846 -70.038)" fill="#ff63e7"/>
      <ellipse id="Ellipse_9" data-name="Ellipse 9" cx="43.146" cy="13.545" rx="43.146" ry="13.545" transform="matrix(0.975, -0.223, 0.223, 0.975, 242.181, 341.448)" fill="#2f2e41"/>
      <ellipse id="Ellipse_10" data-name="Ellipse 10" cx="43.146" cy="13.545" rx="43.146" ry="13.545" transform="matrix(0.975, -0.223, 0.223, 0.975, 72.794, 369.616)" fill="#2f2e41"/>
      <path id="Path_11" data-name="Path 11" d="M379.732,464.775a19.662,19.662,0,0,0,38.694,7.005c1.934-10.685-6.327-14.466-17.012-16.4S381.667,454.09,379.732,464.775Z" transform="translate(-195.846 -70.038)" fill="#fff"/>
    </g>
  </g>
</svg>
